<svg id="Ebene_1" data-name="Ebene 1" xmlns="http://www.w3.org/2000/svg" viewBox="0 0 479.27 109.7"><defs><style>.cls-1{fill:#fff;}.cls-2{font-size:51.4px;font-family:Optima-Bold, Optima;font-weight:700;}.cls-2,.cls-3{fill:#006982;}</style></defs><rect class="cls-1" width="479.27" height="109.7"/><text class="cls-2" transform="translate(99.84 82.6)">Health Solutions</text><path class="cls-3" d="M149.83,392.64a35.07,35.07,0,0,0-10.36-7.84L136,382.93l.36,11a19.85,19.85,0,0,1,1.74,1.08,16.31,16.31,0,0,1,5.24,5,11.1,11.1,0,0,1,1.68,8.36,10.87,10.87,0,0,1-3.6,7c-2.58,2.22-5.78,2.93-9.16,3.06a31.85,31.85,0,0,1-10-1.43,77.33,77.33,0,0,1-19.55-8.64l-.8-.51c0,.3,0,.46.06.62l.9,6.23q.52,3.61,1.09,7.23a.74.74,0,0,0,.48.45c.84.16,1.69.3,2.55.38,4.09.38,8.17.85,12.26,1.08a76.51,76.51,0,0,0,14.75-.18A30.15,30.15,0,0,0,145,420.11c4.33-2.5,7.49-5.92,8.78-10.58C155.5,403.32,154.1,397.66,149.83,392.64Z" transform="translate(-63.8 -324.1)"/><path class="cls-3" d="M134.42,347.82c.06-6.09,0-8.82,0-15H122.16c.24,6.42.53,8.8.69,14.95C126.64,347.52,130.82,347.15,134.42,347.82Z" transform="translate(-63.8 -324.1)"/><path class="cls-3" d="M100.73,364.51c-5.63.26-4.73,0-10.37.14-5.17.1-5.22,0-5.16-5,.11-8.84.3-17.67.46-26.88H73c1.22,19.78,1.49,39.29.81,58.85q-.27,7.75-.73,15.54H85.83c-.15-5.28-.33-10.42-.47-15.51q-.17-5.4-.2-10.75c0-5.4,2.86-8.47,8.65-8.66,4.51-.15,2.34-.2,6.92-.18C99.65,369.06,100.09,366.94,100.73,364.51Z" transform="translate(-63.8 -324.1)"/><path class="cls-3" d="M122.76,392.64q-.27,7.35-.7,14.72h12.76c-.13-4.46-.28-8.82-.41-13.14a2.62,2.62,0,0,0,0-.28v-.08c0-.55-.09-1.57-.1-2,0-.12,0-.2,0-.2-.09-4.73-.18-9.47-.18-14.2,0-8.71,0-9.69.11-18.49-3.45-1.2-7.65-2.37-11.44-2.15-.26,1.18-1.5,6.34-8.87,7l-1.31.17c0,2.63.29,5,3.81,8.18,5.08,0,1.24,0,6.58,0,0,2.76.06,5,0,7.3C122.87,383.46,122.86,388.61,122.76,392.64Z" transform="translate(-63.8 -324.1)"/><path class="cls-3" d="M121.17,376.7a27.88,27.88,0,0,1-5.67-3.53c-2.5-1.83-4.34-4.06-4.68-7.1-.41-3.75.75-6.93,4.19-9.14a13,13,0,0,1,5.76-1.91c-.18-1.7-.36-3.39-.5-5.09a29.42,29.42,0,0,0-4.09,1c-7.51,2.45-12.57,7-13.8,14.58a16,16,0,0,0,2.5,11.83,22.79,22.79,0,0,0,8,7,54.73,54.73,0,0,0,8.13,3.81C121.26,386.67,121.24,379.32,121.17,376.7Z" transform="translate(-63.8 -324.1)"/><path class="cls-3" d="M122.42,354.91a31.65,31.65,0,0,1,12.87,2.57,87.23,87.23,0,0,1,11.4,5.81l3.3,1.93c-.24-1.51-.47-2.91-.7-4.31-.51-3.09-1-6.19-1.52-9.28-.06-.34-.11-.63-.61-.68-2.18-.24-4.36-.57-6.54-.77-3.1-.29-6.19-.56-9.3-.72a50.33,50.33,0,0,0-11,.47c.14,1.7.32,3.39.5,5.09C121.32,355,121.87,354.92,122.42,354.91Z" transform="translate(-63.8 -324.1)"/></svg>